<svg width="728" height="78" viewBox="0 0 728 78" fill="none" xmlns="http://www.w3.org/2000/svg">
<path d="M18.0054 38.6705C17.8266 37.2311 17.1012 36.1136 15.8293 35.3182C14.5574 34.5227 12.9973 34.125 11.1491 34.125C9.79765 34.125 8.61518 34.3333 7.60163 34.75C6.59801 35.1667 5.81301 35.7396 5.24661 36.4687C4.69015 37.1979 4.41192 38.0265 4.41192 38.9545C4.41192 39.7311 4.60569 40.3987 4.99322 40.9574C5.39069 41.5066 5.89747 41.9659 6.51355 42.3352C7.12963 42.6951 7.77552 42.9934 8.45122 43.2301C9.12692 43.4574 9.74797 43.642 10.3144 43.7841L13.4146 44.5795C14.2096 44.7784 15.0939 45.053 16.0677 45.4034C17.0515 45.7538 17.9905 46.232 18.8848 46.8381C19.7891 47.4347 20.5343 48.2017 21.1206 49.1392C21.7069 50.0767 22 51.2273 22 52.5909C22 54.1629 21.5678 55.5833 20.7033 56.8523C19.8487 58.1212 18.5967 59.1297 16.9472 59.8778C15.3076 60.6259 13.3153 61 10.9702 61C8.7841 61 6.89115 60.6638 5.29133 59.9915C3.70145 59.3191 2.44941 58.3816 1.53523 57.179C0.630985 55.9763 0.119241 54.5795 0 52.9886H3.81572C3.91509 54.0871 4.30262 54.9962 4.97832 55.7159C5.66396 56.4261 6.52846 56.9564 7.57182 57.3068C8.62511 57.6477 9.7579 57.8182 10.9702 57.8182C12.3812 57.8182 13.6481 57.6004 14.771 57.1648C15.8939 56.7197 16.7832 56.1042 17.439 55.3182C18.0948 54.5227 18.4228 53.5947 18.4228 52.5341C18.4228 51.5682 18.1396 50.7822 17.5732 50.1761C17.0068 49.5701 16.2615 49.0776 15.3374 48.6989C14.4133 48.3201 13.4146 47.9886 12.3415 47.7045L8.58537 46.6818C6.20054 46.0284 4.31256 45.0956 2.92141 43.8835C1.53026 42.6714 0.834688 41.0852 0.834688 39.125C0.834688 37.4962 1.29675 36.0758 2.22087 34.8636C3.15492 33.642 4.40696 32.6951 5.97696 32.0227C7.55691 31.3409 9.32069 31 11.2683 31C13.2358 31 14.9846 31.3362 16.5149 32.0085C18.0452 32.6714 19.2575 33.5805 20.1518 34.7358C21.056 35.8911 21.533 37.2027 21.5827 38.6705H18.0054Z" fill="black"/>
<path d="M74 34.2227V31H97V34.2227H87.3568V61H83.6432V34.2227H74Z" fill="black"/>
<path d="M152.841 61H149L160.109 31H163.891L175 61H171.159L162.118 35.7461H161.882L152.841 61Z" fill="black"/>
<path d="M228 61V31H238.371C240.768 31 242.737 31.4004 244.275 32.2012C245.814 32.9922 246.953 34.0811 247.692 35.4678C248.431 36.8545 248.801 38.4316 248.801 40.1992C248.801 41.9668 248.431 43.5342 247.692 44.9014C246.953 46.2686 245.819 47.3428 244.29 48.124C242.762 48.8955 240.808 49.2812 238.431 49.2812H230.038V46H238.311C239.949 46 241.268 45.7656 242.267 45.2969C243.276 44.8281 244.005 44.1641 244.455 43.3047C244.915 42.4355 245.144 41.4004 245.144 40.1992C245.144 38.998 244.915 37.9482 244.455 37.0498C243.995 36.1514 243.261 35.458 242.252 34.9697C241.243 34.4717 239.909 34.2227 238.251 34.2227H231.717V61H228ZM242.447 47.5234L250 61H245.684L238.251 47.5234H242.447Z" fill="black"/>
<path d="M478 31H482.127L491.833 55.9023H492.167L501.873 31H506V61H502.765V38.207H502.486L493.562 61H490.438L481.514 38.207H481.235V61H478V31Z" fill="black"/>
<path d="M581 46C581 49.0798 580.461 51.7414 579.382 53.9848C578.304 56.2281 576.824 57.9582 574.944 59.1749C573.063 60.3916 570.915 61 568.5 61C566.085 61 563.937 60.3916 562.056 59.1749C560.176 57.9582 558.696 56.2281 557.618 53.9848C556.539 51.7414 556 49.0798 556 46C556 42.9202 556.539 40.2586 557.618 38.0152C558.696 35.7719 560.176 34.0418 562.056 32.8251C563.937 31.6084 566.085 31 568.5 31C570.915 31 573.063 31.6084 574.944 32.8251C576.824 34.0418 578.304 35.7719 579.382 38.0152C580.461 40.2586 581 42.9202 581 46ZM577.681 46C577.681 43.4715 577.271 41.3375 576.451 39.5979C575.64 37.8584 574.538 36.5418 573.146 35.6483C571.763 34.7548 570.215 34.308 568.5 34.308C566.785 34.308 565.232 34.7548 563.84 35.6483C562.457 36.5418 561.356 37.8584 560.535 39.5979C559.724 41.3375 559.319 43.4715 559.319 46C559.319 48.5285 559.724 50.6625 560.535 52.4021C561.356 54.1416 562.457 55.4582 563.84 56.3517C565.232 57.2452 566.785 57.692 568.5 57.692C570.215 57.692 571.763 57.2452 573.146 56.3517C574.538 55.4582 575.64 54.1416 576.451 52.4021C577.271 50.6625 577.681 48.5285 577.681 46Z" fill="black"/>
<path d="M639.647 61H631V31H640.03C642.748 31 645.074 31.6006 647.007 32.8018C648.941 33.9932 650.423 35.707 651.454 37.9434C652.485 40.1699 653 42.8359 653 45.9414C653 49.0664 652.48 51.7568 651.44 54.0127C650.401 56.2588 648.886 57.9873 646.898 59.1982C644.91 60.3994 642.493 61 639.647 61ZM634.393 57.7773H639.428C641.745 57.7773 643.665 57.2988 645.188 56.3418C646.711 55.3848 647.847 54.0225 648.595 52.2549C649.342 50.4873 649.716 48.3828 649.716 45.9414C649.716 43.5195 649.347 41.4346 648.608 39.6865C647.869 37.9287 646.766 36.5811 645.297 35.6436C643.829 34.6963 642 34.2227 639.811 34.2227H634.393V57.7773Z" fill="black"/>
<path d="M702 61V31H728V34.2227H702V44.3594H728V47.582H702V57.7773H728V61H702Z" fill="black"/>
<path d="M360.22 4.72517C361.41 1.09161 366.59 1.09161 367.78 4.72517L374.262 24.5206C374.794 26.1456 376.32 27.2458 378.042 27.2458H399.018C402.868 27.2458 404.469 32.1347 401.354 34.3804L384.384 46.6146C382.991 47.6189 382.408 49.3991 382.94 51.024L389.422 70.8195C390.612 74.453 386.421 77.4746 383.306 75.2289L366.336 62.9946C364.943 61.9903 363.057 61.9903 361.664 62.9946L344.694 75.2289C341.579 77.4746 337.388 74.453 338.578 70.8195L345.06 51.024C345.592 49.3991 345.009 47.6189 343.616 46.6146L326.646 34.3804C323.531 32.1347 325.132 27.2458 328.982 27.2458H349.958C351.68 27.2458 353.206 26.1456 353.738 24.5206L360.22 4.72517Z" fill="black"/>
</svg>
