<svg width="1200" height="630" viewBox="0 0 1200 630" fill="none" xmlns="http://www.w3.org/2000/svg">
<rect width="1200" height="630" fill="url(#paint0_linear_4001_59)"/>
<path d="M466.809 555L461.994 538.636H465.286L468.492 550.653H468.652L471.869 538.636H475.161L478.357 550.6H478.517L481.703 538.636H484.994L480.19 555H476.94L473.617 543.185H473.372L470.048 555H466.809ZM491.565 555L486.75 538.636H490.041L493.248 550.653H493.408L496.625 538.636H499.917L503.113 550.6H503.273L506.458 538.636H509.75L504.946 555H501.696L498.372 543.185H498.127L494.804 555H491.565ZM516.321 555L511.505 538.636H514.797L518.004 550.653H518.164L521.381 538.636H524.673L527.869 550.6H528.029L531.214 538.636H534.506L529.701 555H526.452L523.128 543.185H522.883L519.559 555H516.321ZM537.401 555.202C536.819 555.202 536.318 554.996 535.899 554.585C535.48 554.165 535.271 553.661 535.271 553.072C535.271 552.489 535.48 551.992 535.899 551.58C536.318 551.161 536.819 550.952 537.401 550.952C537.984 550.952 538.484 551.161 538.903 551.58C539.322 551.992 539.532 552.489 539.532 553.072C539.532 553.462 539.432 553.821 539.234 554.148C539.042 554.467 538.786 554.723 538.467 554.915C538.147 555.107 537.792 555.202 537.401 555.202ZM556.061 542.631L553.174 543.143C553.053 542.773 552.861 542.422 552.598 542.088C552.343 541.754 551.995 541.481 551.554 541.268C551.114 541.055 550.563 540.948 549.903 540.948C549.001 540.948 548.248 541.151 547.644 541.555C547.041 541.953 546.739 542.468 546.739 543.1C546.739 543.647 546.941 544.087 547.346 544.421C547.751 544.755 548.404 545.028 549.306 545.241L551.906 545.838C553.411 546.186 554.534 546.722 555.272 547.447C556.011 548.171 556.38 549.112 556.38 550.27C556.38 551.25 556.096 552.124 555.528 552.891C554.967 553.651 554.182 554.247 553.174 554.68C552.172 555.114 551.011 555.33 549.69 555.33C547.858 555.33 546.362 554.94 545.205 554.158C544.047 553.37 543.337 552.251 543.074 550.803L546.153 550.334C546.345 551.136 546.739 551.744 547.335 552.156C547.932 552.56 548.71 552.763 549.669 552.763C550.713 552.763 551.547 552.546 552.172 552.113C552.797 551.673 553.11 551.136 553.11 550.504C553.11 549.993 552.918 549.563 552.534 549.215C552.158 548.867 551.579 548.604 550.798 548.427L548.028 547.82C546.501 547.472 545.372 546.918 544.64 546.158C543.916 545.398 543.554 544.435 543.554 543.271C543.554 542.305 543.823 541.46 544.363 540.735C544.903 540.011 545.649 539.446 546.6 539.041C547.552 538.629 548.642 538.423 549.871 538.423C551.639 538.423 553.032 538.807 554.047 539.574C555.063 540.334 555.734 541.353 556.061 542.631ZM567.521 538.636V541.193H558.583V538.636H567.521ZM560.98 534.716H564.165V550.195C564.165 550.813 564.258 551.278 564.442 551.591C564.627 551.896 564.865 552.106 565.156 552.219C565.454 552.326 565.777 552.379 566.125 552.379C566.381 552.379 566.605 552.362 566.797 552.326C566.988 552.29 567.138 552.262 567.244 552.241L567.819 554.872C567.635 554.943 567.372 555.014 567.031 555.085C566.69 555.163 566.264 555.206 565.753 555.213C564.915 555.227 564.133 555.078 563.409 554.766C562.684 554.453 562.098 553.97 561.651 553.317C561.204 552.663 560.98 551.843 560.98 550.856V534.716ZM575.807 555.362C574.77 555.362 573.832 555.17 572.994 554.787C572.156 554.396 571.492 553.832 571.002 553.093C570.519 552.354 570.278 551.449 570.278 550.376C570.278 549.453 570.455 548.693 570.81 548.097C571.165 547.5 571.645 547.028 572.248 546.68C572.852 546.332 573.527 546.069 574.273 545.891C575.018 545.714 575.778 545.579 576.552 545.487C577.533 545.373 578.328 545.281 578.939 545.21C579.55 545.131 579.994 545.007 580.271 544.837C580.547 544.666 580.686 544.389 580.686 544.006V543.931C580.686 543.001 580.423 542.28 579.898 541.768C579.379 541.257 578.605 541.001 577.575 541.001C576.503 541.001 575.658 541.239 575.04 541.715C574.429 542.184 574.006 542.706 573.772 543.281L570.778 542.599C571.133 541.605 571.652 540.803 572.334 540.192C573.023 539.574 573.815 539.126 574.709 538.849C575.604 538.565 576.545 538.423 577.533 538.423C578.186 538.423 578.878 538.501 579.61 538.658C580.349 538.807 581.038 539.084 581.677 539.489C582.323 539.893 582.852 540.472 583.264 541.225C583.676 541.971 583.882 542.94 583.882 544.134V555H580.771V552.763H580.643C580.437 553.175 580.128 553.58 579.717 553.977C579.305 554.375 578.775 554.705 578.129 554.968C577.483 555.231 576.709 555.362 575.807 555.362ZM576.499 552.805C577.38 552.805 578.133 552.631 578.758 552.283C579.39 551.935 579.869 551.481 580.196 550.92C580.53 550.352 580.697 549.744 580.697 549.098V546.989C580.583 547.102 580.363 547.209 580.036 547.308C579.717 547.401 579.351 547.482 578.939 547.553C578.527 547.617 578.126 547.678 577.735 547.734C577.344 547.784 577.018 547.827 576.755 547.862C576.137 547.94 575.572 548.072 575.061 548.256C574.557 548.441 574.152 548.707 573.847 549.055C573.548 549.396 573.399 549.851 573.399 550.419C573.399 551.207 573.69 551.804 574.273 552.209C574.855 552.607 575.597 552.805 576.499 552.805ZM588.125 555V538.636H591.204V541.236H591.374C591.672 540.355 592.198 539.663 592.951 539.158C593.711 538.647 594.57 538.391 595.529 538.391C595.728 538.391 595.962 538.398 596.232 538.413C596.509 538.427 596.726 538.445 596.882 538.466V541.513C596.754 541.477 596.527 541.438 596.2 541.396C595.873 541.346 595.547 541.321 595.22 541.321C594.467 541.321 593.796 541.481 593.206 541.8C592.624 542.113 592.162 542.55 591.821 543.111C591.481 543.665 591.31 544.297 591.31 545.007V555H588.125ZM599.638 555V538.636H602.696V541.3H602.898C603.239 540.398 603.797 539.695 604.571 539.19C605.345 538.679 606.272 538.423 607.351 538.423C608.445 538.423 609.361 538.679 610.1 539.19C610.846 539.702 611.396 540.405 611.751 541.3H611.922C612.312 540.426 612.934 539.73 613.786 539.212C614.638 538.686 615.654 538.423 616.833 538.423C618.317 538.423 619.528 538.888 620.466 539.819C621.41 540.749 621.883 542.152 621.883 544.027V555H618.697V544.325C618.697 543.217 618.396 542.415 617.792 541.918C617.188 541.42 616.467 541.172 615.629 541.172C614.592 541.172 613.786 541.491 613.211 542.131C612.636 542.763 612.348 543.576 612.348 544.57V555H609.173V544.123C609.173 543.235 608.896 542.521 608.342 541.982C607.788 541.442 607.067 541.172 606.18 541.172C605.576 541.172 605.018 541.332 604.507 541.651C604.003 541.964 603.594 542.401 603.282 542.962C602.976 543.523 602.824 544.173 602.824 544.911V555H599.638ZM633.045 555.33C631.511 555.33 630.172 554.979 629.028 554.276C627.885 553.572 626.997 552.589 626.365 551.325C625.733 550.06 625.417 548.583 625.417 546.893C625.417 545.195 625.733 543.711 626.365 542.44C626.997 541.168 627.885 540.181 629.028 539.478C630.172 538.775 631.511 538.423 633.045 538.423C634.579 538.423 635.918 538.775 637.061 539.478C638.205 540.181 639.092 541.168 639.725 542.44C640.357 543.711 640.673 545.195 640.673 546.893C640.673 548.583 640.357 550.06 639.725 551.325C639.092 552.589 638.205 553.572 637.061 554.276C635.918 554.979 634.579 555.33 633.045 555.33ZM633.055 552.656C634.05 552.656 634.874 552.393 635.527 551.868C636.18 551.342 636.663 550.643 636.976 549.769C637.296 548.896 637.455 547.933 637.455 546.882C637.455 545.838 637.296 544.879 636.976 544.006C636.663 543.125 636.18 542.418 635.527 541.886C634.874 541.353 634.05 541.087 633.055 541.087C632.054 541.087 631.223 541.353 630.563 541.886C629.909 542.418 629.423 543.125 629.103 544.006C628.791 544.879 628.634 545.838 628.634 546.882C628.634 547.933 628.791 548.896 629.103 549.769C629.423 550.643 629.909 551.342 630.563 551.868C631.223 552.393 632.054 552.656 633.055 552.656ZM650.354 555.32C649.033 555.32 647.854 554.982 646.817 554.308C645.787 553.626 644.978 552.656 644.388 551.399C643.806 550.135 643.514 548.619 643.514 546.85C643.514 545.082 643.809 543.569 644.399 542.312C644.995 541.055 645.812 540.092 646.849 539.425C647.886 538.757 649.061 538.423 650.375 538.423C651.391 538.423 652.208 538.594 652.826 538.935C653.451 539.268 653.934 539.659 654.274 540.107C654.622 540.554 654.892 540.948 655.084 541.289H655.276V533.182H658.461V555H655.35V552.454H655.084C654.892 552.802 654.615 553.2 654.253 553.647C653.898 554.094 653.408 554.485 652.783 554.819C652.158 555.153 651.348 555.32 650.354 555.32ZM651.057 552.603C651.973 552.603 652.747 552.362 653.38 551.879C654.019 551.388 654.502 550.71 654.828 549.844C655.162 548.977 655.329 547.969 655.329 546.818C655.329 545.682 655.166 544.687 654.839 543.835C654.512 542.983 654.033 542.319 653.401 541.843C652.769 541.367 651.987 541.129 651.057 541.129C650.098 541.129 649.299 541.378 648.66 541.875C648.021 542.372 647.538 543.05 647.211 543.91C646.892 544.769 646.732 545.739 646.732 546.818C646.732 547.912 646.895 548.896 647.222 549.769C647.549 550.643 648.032 551.335 648.671 551.847C649.317 552.351 650.112 552.603 651.057 552.603ZM670.06 555.33C668.448 555.33 667.059 554.986 665.895 554.297C664.737 553.601 663.842 552.624 663.21 551.367C662.585 550.103 662.272 548.622 662.272 546.925C662.272 545.249 662.585 543.771 663.21 542.493C663.842 541.214 664.723 540.217 665.852 539.499C666.988 538.782 668.316 538.423 669.836 538.423C670.76 538.423 671.655 538.576 672.521 538.881C673.388 539.187 674.165 539.666 674.854 540.32C675.543 540.973 676.086 541.822 676.484 542.866C676.882 543.903 677.081 545.163 677.081 546.648V547.777H664.073V545.391H673.959C673.959 544.553 673.789 543.81 673.448 543.164C673.107 542.511 672.628 541.996 672.01 541.619C671.399 541.243 670.682 541.055 669.858 541.055C668.963 541.055 668.182 541.275 667.514 541.715C666.853 542.148 666.342 542.717 665.98 543.42C665.625 544.116 665.447 544.872 665.447 545.689V547.553C665.447 548.647 665.639 549.577 666.022 550.344C666.413 551.112 666.956 551.697 667.652 552.102C668.348 552.5 669.162 552.699 670.092 552.699C670.696 552.699 671.246 552.614 671.743 552.443C672.241 552.266 672.67 552.003 673.032 551.655C673.395 551.307 673.672 550.877 673.863 550.366L676.878 550.909C676.637 551.797 676.204 552.575 675.579 553.242C674.961 553.903 674.183 554.418 673.245 554.787C672.315 555.149 671.253 555.33 670.06 555.33ZM682.714 555.202C682.131 555.202 681.631 554.996 681.212 554.585C680.793 554.165 680.583 553.661 680.583 553.072C680.583 552.489 680.793 551.992 681.212 551.58C681.631 551.161 682.131 550.952 682.714 550.952C683.296 550.952 683.797 551.161 684.216 551.58C684.635 551.992 684.844 552.489 684.844 553.072C684.844 553.462 684.745 553.821 684.546 554.148C684.354 554.467 684.099 554.723 683.779 554.915C683.459 555.107 683.104 555.202 682.714 555.202ZM695.237 555.32C693.916 555.32 692.737 554.982 691.7 554.308C690.67 553.626 689.86 552.656 689.271 551.399C688.688 550.135 688.397 548.619 688.397 546.85C688.397 545.082 688.692 543.569 689.282 542.312C689.878 541.055 690.695 540.092 691.732 539.425C692.769 538.757 693.944 538.423 695.258 538.423C696.274 538.423 697.09 538.594 697.708 538.935C698.333 539.268 698.816 539.659 699.157 540.107C699.505 540.554 699.775 540.948 699.967 541.289H700.159V533.182H703.344V555H700.233V552.454H699.967C699.775 552.802 699.498 553.2 699.136 553.647C698.781 554.094 698.291 554.485 697.666 554.819C697.041 555.153 696.231 555.32 695.237 555.32ZM695.94 552.603C696.856 552.603 697.63 552.362 698.262 551.879C698.902 551.388 699.384 550.71 699.711 549.844C700.045 548.977 700.212 547.969 700.212 546.818C700.212 545.682 700.049 544.687 699.722 543.835C699.395 542.983 698.916 542.319 698.284 541.843C697.652 541.367 696.87 541.129 695.94 541.129C694.981 541.129 694.182 541.378 693.543 541.875C692.904 542.372 692.421 543.05 692.094 543.91C691.774 544.769 691.615 545.739 691.615 546.818C691.615 547.912 691.778 548.896 692.105 549.769C692.431 550.643 692.914 551.335 693.554 551.847C694.2 552.351 694.995 552.603 695.94 552.603ZM714.943 555.33C713.331 555.33 711.942 554.986 710.777 554.297C709.62 553.601 708.725 552.624 708.093 551.367C707.468 550.103 707.155 548.622 707.155 546.925C707.155 545.249 707.468 543.771 708.093 542.493C708.725 541.214 709.606 540.217 710.735 539.499C711.871 538.782 713.199 538.423 714.719 538.423C715.642 538.423 716.537 538.576 717.404 538.881C718.27 539.187 719.048 539.666 719.737 540.32C720.426 540.973 720.969 541.822 721.367 542.866C721.765 543.903 721.964 545.163 721.964 546.648V547.777H708.956V545.391H718.842C718.842 544.553 718.672 543.81 718.331 543.164C717.99 542.511 717.51 541.996 716.892 541.619C716.282 541.243 715.564 541.055 714.741 541.055C713.846 541.055 713.064 541.275 712.397 541.715C711.736 542.148 711.225 542.717 710.863 543.42C710.508 544.116 710.33 544.872 710.33 545.689V547.553C710.33 548.647 710.522 549.577 710.905 550.344C711.296 551.112 711.839 551.697 712.535 552.102C713.231 552.5 714.044 552.699 714.975 552.699C715.579 552.699 716.129 552.614 716.626 552.443C717.123 552.266 717.553 552.003 717.915 551.655C718.277 551.307 718.554 550.877 718.746 550.366L721.761 550.909C721.52 551.797 721.086 552.575 720.461 553.242C719.843 553.903 719.066 554.418 718.128 554.787C717.198 555.149 716.136 555.33 714.943 555.33ZM739.028 538.636L733.094 555H729.685L723.74 538.636H727.16L731.304 551.229H731.474L735.608 538.636H739.028Z" fill="#1E293B"/>
<path d="M238.043 345H222.93L242.56 286.818H261.282L280.913 345H265.799L252.134 301.477H251.68L238.043 345ZM236.026 322.102H267.617V332.784H236.026V322.102ZM334.461 314.688L321.705 315.028C321.573 314.119 321.213 313.314 320.626 312.614C320.039 311.894 319.272 311.335 318.325 310.938C317.397 310.521 316.317 310.312 315.086 310.312C313.476 310.312 312.103 310.634 310.967 311.278C309.849 311.922 309.3 312.794 309.319 313.892C309.3 314.744 309.641 315.483 310.342 316.108C311.061 316.733 312.34 317.235 314.177 317.614L322.586 319.205C326.942 320.038 330.181 321.42 332.302 323.352C334.442 325.284 335.522 327.841 335.54 331.023C335.522 334.015 334.631 336.619 332.87 338.835C331.128 341.051 328.741 342.775 325.711 344.006C322.681 345.218 319.215 345.824 315.313 345.824C309.082 345.824 304.167 344.545 300.569 341.989C296.989 339.413 294.944 335.966 294.433 331.648L308.154 331.307C308.457 332.898 309.243 334.11 310.512 334.943C311.781 335.777 313.4 336.193 315.37 336.193C317.15 336.193 318.599 335.862 319.717 335.199C320.834 334.536 321.402 333.655 321.421 332.557C321.402 331.572 320.967 330.786 320.114 330.199C319.262 329.593 317.927 329.119 316.109 328.778L308.495 327.33C304.12 326.534 300.862 325.066 298.722 322.926C296.582 320.767 295.522 318.021 295.54 314.688C295.522 311.771 296.298 309.28 297.87 307.216C299.442 305.133 301.677 303.542 304.575 302.443C307.472 301.345 310.891 300.795 314.83 300.795C320.739 300.795 325.398 302.036 328.808 304.517C332.217 306.979 334.101 310.369 334.461 314.688ZM358.749 345.824C354.166 345.824 350.227 344.886 346.931 343.011C343.655 341.117 341.126 338.485 339.346 335.114C337.585 331.723 336.704 327.794 336.704 323.324C336.704 318.835 337.585 314.905 339.346 311.534C341.126 308.144 343.655 305.511 346.931 303.636C350.227 301.742 354.166 300.795 358.749 300.795C363.333 300.795 367.263 301.742 370.539 303.636C373.835 305.511 376.363 308.144 378.124 311.534C379.905 314.905 380.795 318.835 380.795 323.324C380.795 327.794 379.905 331.723 378.124 335.114C376.363 338.485 373.835 341.117 370.539 343.011C367.263 344.886 363.333 345.824 358.749 345.824ZM358.835 335.341C360.501 335.341 361.912 334.83 363.067 333.807C364.223 332.784 365.103 331.364 365.71 329.545C366.335 327.727 366.647 325.625 366.647 323.239C366.647 320.814 366.335 318.693 365.71 316.875C365.103 315.057 364.223 313.636 363.067 312.614C361.912 311.591 360.501 311.08 358.835 311.08C357.111 311.08 355.653 311.591 354.46 312.614C353.285 313.636 352.386 315.057 351.761 316.875C351.155 318.693 350.852 320.814 350.852 323.239C350.852 325.625 351.155 327.727 351.761 329.545C352.386 331.364 353.285 332.784 354.46 333.807C355.653 334.83 357.111 335.341 358.835 335.341ZM408.712 301.364V311.591H380.644V301.364H408.712ZM386.496 345V299.148C386.496 295.777 387.131 292.983 388.4 290.767C389.669 288.532 391.43 286.866 393.684 285.767C395.938 284.65 398.542 284.091 401.496 284.091C403.428 284.091 405.246 284.242 406.951 284.545C408.674 284.83 409.953 285.085 410.786 285.312L408.57 295.483C408.059 295.312 407.434 295.17 406.695 295.057C405.976 294.943 405.294 294.886 404.65 294.886C403.021 294.886 401.904 295.246 401.298 295.966C400.692 296.686 400.388 297.67 400.388 298.92V345H386.496ZM436.026 301.364V311.591H408.498V301.364H436.026ZM414.265 290.909H428.157V331.278C428.157 332.131 428.29 332.822 428.555 333.352C428.839 333.864 429.246 334.233 429.776 334.46C430.307 334.669 430.941 334.773 431.68 334.773C432.21 334.773 432.769 334.725 433.356 334.631C433.962 334.517 434.416 334.422 434.719 334.347L436.822 344.375C436.159 344.564 435.221 344.801 434.009 345.085C432.816 345.369 431.386 345.549 429.719 345.625C426.462 345.777 423.668 345.398 421.339 344.489C419.028 343.561 417.257 342.121 416.026 340.17C414.814 338.22 414.227 335.767 414.265 332.812V290.909ZM447.268 345L435.904 301.364H449.853L455.734 329.318H456.103L462.41 301.364H476.018L482.495 329.119H482.864L488.575 301.364H502.523L491.131 345H476.273L469.455 319.574H468.972L462.154 345H447.268ZM516.4 345.739C513.616 345.739 511.144 345.275 508.985 344.347C506.845 343.4 505.15 341.979 503.9 340.085C502.669 338.172 502.053 335.777 502.053 332.898C502.053 330.473 502.479 328.428 503.332 326.761C504.184 325.095 505.358 323.741 506.854 322.699C508.351 321.657 510.074 320.871 512.025 320.341C513.976 319.792 516.059 319.422 518.275 319.233C520.756 319.006 522.754 318.769 524.269 318.523C525.784 318.258 526.883 317.888 527.565 317.415C528.265 316.922 528.616 316.231 528.616 315.341V315.199C528.616 313.741 528.114 312.614 527.11 311.818C526.106 311.023 524.752 310.625 523.048 310.625C521.21 310.625 519.733 311.023 518.616 311.818C517.498 312.614 516.788 313.712 516.485 315.114L503.673 314.659C504.051 312.008 505.027 309.64 506.599 307.557C508.19 305.455 510.368 303.807 513.133 302.614C515.917 301.402 519.26 300.795 523.161 300.795C525.945 300.795 528.512 301.127 530.86 301.79C533.209 302.434 535.254 303.381 536.996 304.631C538.739 305.862 540.084 307.377 541.031 309.176C541.996 310.975 542.479 313.03 542.479 315.341V345H529.411V338.92H529.07C528.294 340.398 527.299 341.648 526.087 342.67C524.894 343.693 523.483 344.46 521.854 344.972C520.245 345.483 518.426 345.739 516.4 345.739ZM520.69 336.648C522.186 336.648 523.531 336.345 524.724 335.739C525.936 335.133 526.902 334.299 527.621 333.239C528.341 332.159 528.701 330.909 528.701 329.489V325.341C528.303 325.549 527.82 325.739 527.252 325.909C526.703 326.08 526.097 326.241 525.434 326.392C524.771 326.544 524.089 326.676 523.388 326.79C522.688 326.903 522.015 327.008 521.371 327.102C520.065 327.311 518.947 327.633 518.019 328.068C517.11 328.504 516.409 329.072 515.917 329.773C515.443 330.455 515.207 331.269 515.207 332.216C515.207 333.655 515.718 334.754 516.741 335.511C517.782 336.269 519.099 336.648 520.69 336.648ZM546.974 345V301.364H560.468V309.318H560.923C561.718 306.439 563.015 304.299 564.815 302.898C566.614 301.477 568.707 300.767 571.093 300.767C571.737 300.767 572.4 300.814 573.082 300.909C573.763 300.985 574.398 301.108 574.985 301.278V313.352C574.322 313.125 573.451 312.945 572.371 312.812C571.311 312.68 570.364 312.614 569.531 312.614C567.883 312.614 566.396 312.983 565.07 313.722C563.763 314.441 562.731 315.455 561.974 316.761C561.235 318.049 560.866 319.564 560.866 321.307V345H546.974ZM594.778 345.824C590.213 345.824 586.274 344.924 582.96 343.125C579.664 341.307 577.126 338.722 575.346 335.369C573.585 331.998 572.704 327.992 572.704 323.352C572.704 318.845 573.594 314.905 575.374 311.534C577.155 308.144 579.664 305.511 582.903 303.636C586.141 301.742 589.958 300.795 594.352 300.795C597.458 300.795 600.299 301.278 602.874 302.244C605.45 303.21 607.675 304.64 609.55 306.534C611.425 308.428 612.884 310.767 613.925 313.551C614.967 316.316 615.488 319.489 615.488 323.068V326.534H577.562V318.466H602.562C602.543 316.989 602.192 315.672 601.511 314.517C600.829 313.362 599.891 312.462 598.698 311.818C597.524 311.155 596.17 310.824 594.636 310.824C593.083 310.824 591.691 311.174 590.46 311.875C589.228 312.557 588.253 313.494 587.533 314.688C586.814 315.862 586.435 317.197 586.397 318.693V326.903C586.397 328.684 586.747 330.246 587.448 331.591C588.149 332.917 589.143 333.949 590.431 334.688C591.719 335.426 593.253 335.795 595.033 335.795C596.264 335.795 597.382 335.625 598.386 335.284C599.389 334.943 600.251 334.441 600.971 333.778C601.691 333.116 602.23 332.301 602.59 331.335L615.346 331.705C614.816 334.564 613.651 337.055 611.852 339.176C610.071 341.278 607.732 342.917 604.835 344.091C601.937 345.246 598.585 345.824 594.778 345.824ZM652.14 345.824C647.538 345.824 643.589 344.877 640.293 342.983C637.017 341.089 634.498 338.456 632.737 335.085C630.975 331.695 630.094 327.775 630.094 323.324C630.094 318.854 630.975 314.934 632.737 311.562C634.517 308.172 637.045 305.53 640.322 303.636C643.617 301.742 647.547 300.795 652.112 300.795C656.146 300.795 659.659 301.525 662.651 302.983C665.663 304.441 668.011 306.506 669.697 309.176C671.401 311.828 672.301 314.943 672.396 318.523H659.413C659.147 316.288 658.39 314.536 657.14 313.267C655.909 311.998 654.299 311.364 652.31 311.364C650.701 311.364 649.29 311.818 648.077 312.727C646.865 313.617 645.918 314.943 645.237 316.705C644.574 318.447 644.242 320.606 644.242 323.182C644.242 325.758 644.574 327.936 645.237 329.716C645.918 331.477 646.865 332.812 648.077 333.722C649.29 334.612 650.701 335.057 652.31 335.057C653.598 335.057 654.735 334.782 655.719 334.233C656.723 333.684 657.547 332.879 658.191 331.818C658.835 330.739 659.242 329.432 659.413 327.898H672.396C672.263 331.496 671.363 334.64 669.697 337.33C668.049 340.019 665.729 342.112 662.737 343.608C659.763 345.085 656.231 345.824 652.14 345.824ZM695.874 345.824C691.291 345.824 687.352 344.886 684.056 343.011C680.78 341.117 678.251 338.485 676.471 335.114C674.71 331.723 673.829 327.794 673.829 323.324C673.829 318.835 674.71 314.905 676.471 311.534C678.251 308.144 680.78 305.511 684.056 303.636C687.352 301.742 691.291 300.795 695.874 300.795C700.458 300.795 704.388 301.742 707.664 303.636C710.96 305.511 713.488 308.144 715.249 311.534C717.03 314.905 717.92 318.835 717.92 323.324C717.92 327.794 717.03 331.723 715.249 335.114C713.488 338.485 710.96 341.117 707.664 343.011C704.388 344.886 700.458 345.824 695.874 345.824ZM695.96 335.341C697.626 335.341 699.037 334.83 700.192 333.807C701.348 332.784 702.228 331.364 702.835 329.545C703.46 327.727 703.772 325.625 703.772 323.239C703.772 320.814 703.46 318.693 702.835 316.875C702.228 315.057 701.348 313.636 700.192 312.614C699.037 311.591 697.626 311.08 695.96 311.08C694.236 311.08 692.778 311.591 691.585 312.614C690.41 313.636 689.511 315.057 688.886 316.875C688.28 318.693 687.977 320.814 687.977 323.239C687.977 325.625 688.28 327.727 688.886 329.545C689.511 331.364 690.41 332.784 691.585 333.807C692.778 334.83 694.236 335.341 695.96 335.341ZM734.928 286.818V345H721.036V286.818H734.928ZM753.663 286.818V345H739.771V286.818H753.663ZM778.903 345.824C774.338 345.824 770.399 344.924 767.085 343.125C763.789 341.307 761.251 338.722 759.471 335.369C757.71 331.998 756.829 327.992 756.829 323.352C756.829 318.845 757.719 314.905 759.499 311.534C761.28 308.144 763.789 305.511 767.028 303.636C770.266 301.742 774.083 300.795 778.477 300.795C781.583 300.795 784.424 301.278 786.999 302.244C789.575 303.21 791.8 304.64 793.675 306.534C795.55 308.428 797.009 310.767 798.05 313.551C799.092 316.316 799.613 319.489 799.613 323.068V326.534H761.687V318.466H786.687C786.668 316.989 786.317 315.672 785.636 314.517C784.954 313.362 784.016 312.462 782.823 311.818C781.649 311.155 780.295 310.824 778.761 310.824C777.208 310.824 775.816 311.174 774.585 311.875C773.353 312.557 772.378 313.494 771.658 314.688C770.939 315.862 770.56 317.197 770.522 318.693V326.903C770.522 328.684 770.872 330.246 771.573 331.591C772.274 332.917 773.268 333.949 774.556 334.688C775.844 335.426 777.378 335.795 779.158 335.795C780.389 335.795 781.507 335.625 782.511 335.284C783.514 334.943 784.376 334.441 785.096 333.778C785.816 333.116 786.355 332.301 786.715 331.335L799.471 331.705C798.941 334.564 797.776 337.055 795.977 339.176C794.196 341.278 791.857 342.917 788.96 344.091C786.062 345.246 782.71 345.824 778.903 345.824ZM823.077 345.824C818.475 345.824 814.526 344.877 811.231 342.983C807.954 341.089 805.435 338.456 803.674 335.085C801.913 331.695 801.032 327.775 801.032 323.324C801.032 318.854 801.913 314.934 803.674 311.562C805.454 308.172 807.983 305.53 811.259 303.636C814.555 301.742 818.485 300.795 823.049 300.795C827.083 300.795 830.596 301.525 833.589 302.983C836.6 304.441 838.949 306.506 840.634 309.176C842.339 311.828 843.238 314.943 843.333 318.523H830.35C830.085 316.288 829.327 314.536 828.077 313.267C826.846 311.998 825.237 311.364 823.248 311.364C821.638 311.364 820.227 311.818 819.015 312.727C817.803 313.617 816.856 314.943 816.174 316.705C815.511 318.447 815.18 320.606 815.18 323.182C815.18 325.758 815.511 327.936 816.174 329.716C816.856 331.477 817.803 332.812 819.015 333.722C820.227 334.612 821.638 335.057 823.248 335.057C824.536 335.057 825.672 334.782 826.657 334.233C827.661 333.684 828.485 332.879 829.129 331.818C829.772 330.739 830.18 329.432 830.35 327.898H843.333C843.201 331.496 842.301 334.64 840.634 337.33C838.987 340.019 836.666 342.112 833.674 343.608C830.701 345.085 827.168 345.824 823.077 345.824ZM871.073 301.364V311.591H843.545V301.364H871.073ZM849.312 290.909H863.204V331.278C863.204 332.131 863.336 332.822 863.602 333.352C863.886 333.864 864.293 334.233 864.823 334.46C865.353 334.669 865.988 334.773 866.727 334.773C867.257 334.773 867.816 334.725 868.403 334.631C869.009 334.517 869.463 334.422 869.766 334.347L871.869 344.375C871.206 344.564 870.268 344.801 869.056 345.085C867.863 345.369 866.433 345.549 864.766 345.625C861.509 345.777 858.715 345.398 856.386 344.489C854.075 343.561 852.304 342.121 851.073 340.17C849.861 338.22 849.274 335.767 849.312 332.812V290.909ZM874.161 345V301.364H888.053V345H874.161ZM881.121 296.278C879.171 296.278 877.495 295.634 876.093 294.347C874.692 293.04 873.991 291.468 873.991 289.631C873.991 287.812 874.692 286.259 876.093 284.972C877.495 283.665 879.171 283.011 881.121 283.011C883.091 283.011 884.767 283.665 886.15 284.972C887.551 286.259 888.252 287.812 888.252 289.631C888.252 291.468 887.551 293.04 886.15 294.347C884.767 295.634 883.091 296.278 881.121 296.278ZM935.225 301.364L920.254 345H904.344L889.401 301.364H904.032L912.072 331.42H912.526L920.594 301.364H935.225ZM955.543 345.824C950.979 345.824 947.04 344.924 943.725 343.125C940.43 341.307 937.892 338.722 936.112 335.369C934.35 331.998 933.469 327.992 933.469 323.352C933.469 318.845 934.36 314.905 936.14 311.534C937.92 308.144 940.43 305.511 943.668 303.636C946.907 301.742 950.723 300.795 955.117 300.795C958.223 300.795 961.064 301.278 963.64 302.244C966.216 303.21 968.441 304.64 970.316 306.534C972.191 308.428 973.649 310.767 974.691 313.551C975.733 316.316 976.254 319.489 976.254 323.068V326.534H938.327V318.466H963.327C963.308 316.989 962.958 315.672 962.276 314.517C961.594 313.362 960.657 312.462 959.464 311.818C958.29 311.155 956.935 310.824 955.401 310.824C953.848 310.824 952.456 311.174 951.225 311.875C949.994 312.557 949.019 313.494 948.299 314.688C947.579 315.862 947.201 317.197 947.163 318.693V326.903C947.163 328.684 947.513 330.246 948.214 331.591C948.915 332.917 949.909 333.949 951.197 334.688C952.485 335.426 954.019 335.795 955.799 335.795C957.03 335.795 958.147 335.625 959.151 335.284C960.155 334.943 961.017 334.441 961.737 333.778C962.456 333.116 962.996 332.301 963.356 331.335L976.112 331.705C975.581 334.564 974.416 337.055 972.617 339.176C970.837 341.278 968.498 342.917 965.6 344.091C962.702 345.246 959.35 345.824 955.543 345.824Z" fill="#1E293B"/>
<path d="M356.163 94.0333C356.054 93.0875 355.608 92.3548 354.823 91.8353C354.038 91.3091 353.049 91.046 351.858 91.046C351.005 91.046 350.268 91.1792 349.645 91.4456C349.022 91.7054 348.538 92.065 348.193 92.5246C347.855 92.9776 347.685 93.4938 347.685 94.0732C347.685 94.5595 347.8 94.9791 348.031 95.3321C348.267 95.6851 348.575 95.9815 348.954 96.2213C349.34 96.4544 349.753 96.6509 350.193 96.8108C350.633 96.964 351.056 97.0905 351.462 97.1904L353.493 97.71C354.156 97.8698 354.836 98.0863 355.533 98.3594C356.23 98.6325 356.877 98.9922 357.472 99.4384C358.068 99.8847 358.549 100.438 358.914 101.097C359.286 101.756 359.473 102.546 359.473 103.465C359.473 104.624 359.168 105.653 358.559 106.552C357.956 107.451 357.08 108.161 355.929 108.68C354.785 109.2 353.401 109.459 351.777 109.459C350.22 109.459 348.873 109.216 347.736 108.73C346.599 108.244 345.709 107.554 345.066 106.662C344.423 105.763 344.068 104.697 344 103.465H347.147C347.208 104.204 347.452 104.82 347.878 105.313C348.311 105.799 348.863 106.162 349.533 106.402C350.21 106.635 350.951 106.752 351.757 106.752C352.643 106.752 353.432 106.615 354.122 106.342C354.819 106.062 355.368 105.676 355.767 105.183C356.166 104.684 356.366 104.101 356.366 103.435C356.366 102.829 356.19 102.333 355.838 101.946C355.493 101.56 355.022 101.24 354.427 100.987C353.838 100.734 353.171 100.511 352.427 100.318L349.97 99.6582C348.305 99.212 346.985 98.5559 346.01 97.69C345.042 96.8241 344.558 95.6785 344.558 94.2531C344.558 93.0741 344.883 92.0451 345.533 91.1659C346.183 90.2866 347.063 89.6039 348.173 89.1177C349.283 88.6248 350.535 88.3784 351.929 88.3784C353.337 88.3784 354.579 88.6215 355.655 89.1077C356.738 89.5939 357.591 90.2633 358.214 91.1159C358.836 91.9618 359.161 92.9343 359.188 94.0333H356.163Z" fill="#1E293B"/>
<path d="M396.747 91.1164V88.3784H412.22V91.1164H405.982V109.459H402.975V91.1164H396.747Z" fill="#1E293B"/>
<path d="M452.067 109.459H448.791L456.151 88.3784H459.717L467.077 109.459H463.801L458.019 92.2075H457.859L452.067 109.459Z" fill="#1E293B"/>
<path d="M504.352 109.459V88.3784H511.797C513.416 88.3784 514.758 88.6597 515.826 89.2224C516.9 89.7851 517.703 90.564 518.233 91.559C518.763 92.5472 519.029 93.6898 519.029 94.9868C519.029 96.2769 518.76 97.4126 518.223 98.3939C517.693 99.3684 516.89 100.127 515.816 100.669C514.748 101.211 513.405 101.482 511.787 101.482H506.147V98.7439H511.501C512.521 98.7439 513.351 98.5964 513.99 98.3013C514.636 98.0062 515.109 97.5773 515.408 97.0146C515.707 96.4519 515.857 95.7759 515.857 94.9868C515.857 94.1908 515.704 93.5011 515.398 92.9178C515.098 92.3345 514.626 91.8884 513.98 91.5796C513.341 91.264 512.501 91.1061 511.461 91.1061H507.503V109.459H504.352ZM514.663 99.9482L519.824 109.459H516.234L511.175 99.9482H514.663Z" fill="#1E293B"/>
<path d="M680.176 88.3784H683.983L690.603 104.766H690.847L697.467 88.3784H701.275V109.459H698.29V94.2045H698.097L691.964 109.429H689.487L683.354 94.1942H683.161V109.459H680.176V88.3784Z" fill="#1E293B"/>
<path d="M753.319 98.9189C753.319 101.11 752.922 102.994 752.129 104.57C751.336 106.14 750.25 107.349 748.869 108.197C747.494 109.039 745.932 109.459 744.181 109.459C742.423 109.459 740.854 109.039 739.473 108.197C738.099 107.349 737.015 106.136 736.222 104.56C735.429 102.983 735.033 101.103 735.033 98.9189C735.033 96.728 735.429 94.8476 736.222 93.2779C737.015 91.7015 738.099 90.4925 739.473 89.6508C740.854 88.8025 742.423 88.3784 744.181 88.3784C745.932 88.3784 747.494 88.8025 748.869 89.6508C750.25 90.4925 751.336 91.7015 752.129 93.2779C752.922 94.8476 753.319 96.728 753.319 98.9189ZM750.286 98.9189C750.286 97.249 750.018 95.8429 749.483 94.7007C748.955 93.5518 748.228 92.6834 747.303 92.0956C746.384 91.5011 745.344 91.2039 744.181 91.2039C743.011 91.2039 741.967 91.5011 741.049 92.0956C740.13 92.6834 739.404 93.5518 738.868 94.7007C738.34 95.8429 738.076 97.249 738.076 98.9189C738.076 100.589 738.34 101.998 738.868 103.147C739.404 104.289 740.13 105.158 741.049 105.752C741.967 106.34 743.011 106.634 744.181 106.634C745.344 106.634 746.384 106.34 747.303 105.752C748.228 105.158 748.955 104.289 749.483 103.147C750.018 101.998 750.286 100.589 750.286 98.9189Z" fill="#1E293B"/>
<path d="M793.867 109.459H787.077V88.3784H794.083C796.138 88.3784 797.903 88.8004 799.378 89.6445C800.853 90.4817 801.983 91.686 802.768 93.2575C803.56 94.8221 803.956 96.6989 803.956 98.888C803.956 101.084 803.557 102.971 802.758 104.549C801.966 106.128 800.819 107.342 799.316 108.193C797.814 109.037 795.998 109.459 793.867 109.459ZM790.242 106.68H793.693C795.291 106.68 796.619 106.378 797.678 105.774C798.736 105.164 799.528 104.282 800.054 103.129C800.58 101.969 800.842 100.556 800.842 98.888C800.842 97.2342 800.58 95.8308 800.054 94.678C799.535 93.5251 798.76 92.6502 797.729 92.0531C796.698 91.4561 795.417 91.1576 793.888 91.1576H790.242V106.68Z" fill="#1E293B"/>
<path d="M837.714 109.459V88.3784H856V91.1164H837.714V97.5396H854.885V100.267H837.714V106.721H856V109.459H837.714Z" fill="#1E293B"/>
<path d="M597.342 69.915C598.178 67.3617 601.822 67.3617 602.658 69.915L607.217 83.8253C607.591 84.9672 608.665 85.7403 609.876 85.7403H624.628C627.336 85.7403 628.462 89.1757 626.271 90.7538L614.336 99.3508C613.356 100.057 612.946 101.307 613.321 102.449L617.879 116.36C618.716 118.913 615.769 121.036 613.578 119.458L601.643 110.861C600.663 110.155 599.337 110.155 598.357 110.861L586.422 119.458C584.231 121.036 581.284 118.913 582.121 116.36L586.679 102.449C587.054 101.307 586.644 100.057 585.664 99.3508L573.729 90.7538C571.538 89.1757 572.664 85.7403 575.372 85.7403H590.124C591.335 85.7403 592.409 84.9672 592.783 83.8253L597.342 69.915Z" fill="#1E293B"/>
<g clip-path="url(#clip0_4001_59)">
<path d="M564 622H556V630H564V622Z" fill="#E40303"/>
<path d="M572 622H564V630H572V622Z" fill="#FF8C00"/>
<path d="M580 622H572V630H580V622Z" fill="#FFED00"/>
<path d="M588 622H580V630H588V622Z" fill="#008026"/>
<path d="M596 622H588V630H596V622Z" fill="#004DFF"/>
<path d="M604 622H596V630H604V622Z" fill="#750787"/>
<path d="M612 622H604V630H612V622Z" fill="white"/>
<path d="M620 622H612V630H620V622Z" fill="#FFAFC8"/>
<path d="M628 622H620V630H628V622Z" fill="#74D7EE"/>
<path d="M636 622H628V630H636V622Z" fill="#613915"/>
<path d="M644 622H636V630H644V622Z" fill="black"/>
</g>
<defs>
<linearGradient id="paint0_linear_4001_59" x1="0" y1="0" x2="1200" y2="630" gradientUnits="userSpaceOnUse">
<stop stop-color="#F9FAFB"/>
<stop offset="0.999133" stop-color="#F1F5F9"/>
</linearGradient>
<clipPath id="clip0_4001_59">
<rect width="88" height="8" fill="white" transform="translate(556 622)"/>
</clipPath>
</defs>
</svg>
